<?xml version="1.0" encoding="utf-8"?>
<!-- Generator: Adobe Illustrator 24.0.0, SVG Export Plug-In . SVG Version: 6.00 Build 0)  -->
<svg version="1.1" id="Capa_1" xmlns="http://www.w3.org/2000/svg" xmlns:xlink="http://www.w3.org/1999/xlink" x="0px" y="0px"
	 viewBox="0 0 16 16" style="enable-background:new 0 0 16 16;" xml:space="preserve">
<style type="text/css">
	.st0{fill:#FFFFFF;}
</style>
<path class="st0" d="M0,3c0-1.1,0.9-2,2-2h12c1.1,0,2,0.9,2,2v10c0,1.1-0.9,2-2,2H2c-1.1,0-2-0.9-2-2V3z M9.5,8.5h-3
	C6.2,8.5,6,8.7,6,9s0.2,0.5,0.5,0.5h3C9.8,9.5,10,9.3,10,9S9.8,8.5,9.5,8.5 M3.1,8.1C3,8.3,3,8.7,3.1,8.9C3.3,9,3.7,9,3.9,8.9l2-2
	C6,6.7,6,6.3,5.9,6.1c0,0,0,0,0,0l-2-2C3.7,4,3.3,4,3.1,4.1C3,4.3,3,4.7,3.1,4.9l0,0l1.6,1.6L3.1,8.1z"/>
</svg>
